# WaveFront *.obj file (generated by Autodesk ATF)

mtllib training_env.mtl

g Solido1

v -6.500000 0.000000 -7.250000
v -6.500000 0.000000 8.750000
v -6.500000 3.000000 -7.250000
v -6.500000 3.000000 8.750000
v -6.090705 0.000000 -4.280774
v -6.090705 0.000000 -0.280774
v -6.090705 3.000000 -4.280774
v -6.090705 3.000000 -0.280774
v -4.590705 0.000000 -2.780774
v -4.590705 0.000000 -1.280774
v -4.590705 3.000000 -2.780774
v -4.590705 3.000000 -1.280774
v -3.713063 0.000000 0.491768
v -3.713063 3.000000 0.491768
v -3.425541 0.000000 0.619921
v -3.425541 3.000000 0.619921
v -3.171095 0.000000 0.805257
v -3.171095 3.000000 0.805257
v -3.152953 0.000000 3.349364
v -3.152953 3.000000 3.349364
v -3.149973 0.000000 3.854334
v -3.149973 3.000000 3.854334
v -3.073257 0.000000 2.850714
v -3.073257 3.000000 2.850714
v -3.064398 0.000000 4.352009
v -3.064398 3.000000 4.352009
v -2.960933 0.000000 1.039615
v -2.960933 3.000000 1.039615
v -2.913036 0.000000 2.371827
v -2.913036 3.000000 2.371827
v -2.898535 0.000000 4.828971
v -2.898535 3.000000 4.828971
v -2.804309 0.000000 1.312674
v -2.804309 3.000000 1.312674
v -2.708121 0.000000 1.612408
v -2.708121 3.000000 1.612408
v -2.676606 0.000000 -0.994856
v -2.676606 0.000000 1.925615
v -2.676606 3.000000 -0.994856
v -2.676606 3.000000 1.925615
v -2.656855 0.000000 5.272361
v -2.656855 3.000000 5.272361
v -2.345876 0.000000 5.670225
v -2.345876 3.000000 5.670225
v -1.973981 0.000000 6.011835
v -1.973981 3.000000 6.011835
v -1.840705 0.000000 -2.780774
v -1.840705 0.000000 3.865697
v -1.840705 3.000000 -2.780774
v -1.840705 3.000000 3.865697
v -1.590705 0.000000 -4.280774
v -1.590705 3.000000 -4.280774
v -1.551286 0.000000 4.225787
v -1.551286 3.000000 4.225787
v -1.551198 0.000000 6.287982
v -1.551198 3.000000 6.287982
v -1.297645 0.000000 -0.031326
v -1.297645 0.000000 2.382445
v -1.297645 3.000000 -0.031326
v -1.297645 3.000000 2.382445
v -1.210011 0.000000 4.537171
v -1.210011 3.000000 4.537171
v -1.088923 0.000000 6.491220
v -1.088923 3.000000 6.491220
v -0.824973 0.000000 4.792465
v -0.824973 3.000000 4.792465
v -0.599622 0.000000 6.616071
v -0.599622 3.000000 6.616071
v -0.405304 0.000000 4.985614
v -0.405304 3.000000 4.985614
v -0.096485 0.000000 6.659167
v -0.096485 3.000000 6.659167
v 0.039045 0.000000 5.112038
v 0.039045 3.000000 5.112038
v 0.406921 0.000000 6.619346
v 0.406921 3.000000 6.619346
v 0.497535 0.000000 5.168739
v 0.497535 3.000000 5.168739
v 0.621317 0.000000 -3.003663
v 0.621317 3.000000 -3.003663
v 0.650590 0.000000 -1.465066
v 0.650590 3.000000 -1.465066
v 0.897024 0.000000 6.497684
v 0.897024 3.000000 6.497684
v 0.959295 0.000000 0.654372
v 0.959295 0.000000 5.154372
v 0.959295 3.000000 0.654372
v 0.959295 3.000000 5.154372
v 1.360612 0.000000 6.297459
v 1.360612 3.000000 6.297459
v 1.785185 0.000000 6.024070
v 1.785185 3.000000 6.024070
v 2.159295 0.000000 2.684888
v 2.159295 0.000000 5.684888
v 2.159295 3.000000 2.684888
v 2.159295 3.000000 5.684888
v 3.118611 0.000000 -3.281326
v 3.118611 3.000000 -3.281326
v 3.159295 0.000000 -4.780774
v 3.159295 3.000000 -4.780774
v 4.159612 0.000000 -1.281326
v 4.159612 0.000000 1.218674
v 4.159612 3.000000 -1.281326
v 4.159612 3.000000 1.218674
v 5.409295 0.000000 0.219226
v 5.409295 0.000000 2.969226
v 5.409295 3.000000 0.219226
v 5.409295 3.000000 2.969226
v 6.909611 0.000000 -3.281326
v 6.909611 0.000000 -1.281326
v 6.909611 3.000000 -3.281326
v 6.909611 3.000000 -1.281326
v 8.409295 0.000000 -4.780774
v 8.409295 0.000000 0.219226
v 8.409295 3.000000 -4.780774
v 8.409295 3.000000 0.219226
v 8.500000 0.000000 -7.250000
v 8.500000 0.000000 8.750000
v 8.500000 3.000000 -7.250000
v 8.500000 3.000000 8.750000
vt 0.000000 0.000000 0.000000
vt 1600.000000 0.000000 0.000000
vt 1600.000000 300.000000 0.000000
vt 0.000000 300.000000 0.000000
vt 0.000000 0.000000 0.000000
vt 1500.000000 0.000000 0.000000
vt 1500.000000 300.000000 0.000000
vt 0.000000 300.000000 0.000000
vt 0.000000 0.000000 0.000000
vt 1600.000000 0.000000 0.000000
vt 1600.000000 300.000000 0.000000
vt 0.000000 300.000000 0.000000
vt 0.000000 0.000000 0.000000
vt 1500.000000 0.000000 0.000000
vt 1500.000000 300.000000 0.000000
vt 0.000000 300.000000 0.000000
vt 203.077423 -559.070496 0.000000
vt 353.077423 -559.070496 0.000000
vt 353.077423 -284.070465 0.000000
vt 221.506592 -34.941006 0.000000
vt 403.132599 211.861130 0.000000
vt 403.132599 590.961121 0.000000
vt 203.132599 590.961121 0.000000
vt 203.132599 315.961151 0.000000
vt -46.867397 315.961151 0.000000
vt 9.562808 -4.070473 0.000000
vt -440.437195 -4.070473 0.000000
vt -441.873871 -50.246471 0.000000
vt -436.203796 -96.095543 0.000000
vt -423.561401 -140.530411 0.000000
vt -404.246490 -182.497314 0.000000
vt -378.717133 -221.001053 0.000000
vt -347.578705 -255.128555 0.000000
vt -311.569672 -284.070465 0.000000
vt -163.244461 -229.764481 0.000000
vt 78.132599 -229.764481 0.000000
vt 174.485611 -367.660645 0.000000
vt -353.077423 -559.070496 0.000000
vt -203.077423 -559.070496 0.000000
vt -174.485611 -367.660645 0.000000
vt -78.132599 -229.764481 0.000000
vt 163.244461 -229.764481 0.000000
vt 311.569672 -284.070465 0.000000
vt 347.578705 -255.128555 0.000000
vt 378.717133 -221.001053 0.000000
vt 404.246490 -182.497314 0.000000
vt 423.561401 -140.530411 0.000000
vt 436.203796 -96.095543 0.000000
vt 441.873871 -50.246471 0.000000
vt 440.437195 -4.070473 0.000000
vt -9.562808 -4.070473 0.000000
vt 46.867397 315.961151 0.000000
vt -203.132599 315.961151 0.000000
vt -203.132599 590.961121 0.000000
vt -403.132599 590.961121 0.000000
vt -403.132599 211.861130 0.000000
vt -221.506592 -34.941006 0.000000
vt -353.077423 -284.070465 0.000000
vt -0.000000 300.000000 0.000000
vt -150.000000 300.000000 0.000000
vt -150.000000 0.000000 0.000000
vt -0.000000 0.000000 0.000000
vt -0.000000 300.000000 0.000000
vt -275.000000 300.000000 0.000000
vt -275.000000 0.000000 0.000000
vt -0.000000 0.000000 0.000000
vt -0.000000 300.000000 0.000000
vt -281.738129 300.000000 0.000000
vt -281.738129 0.000000 0.000000
vt -0.000000 0.000000 0.000000
vt -0.000000 300.000000 0.000000
vt -306.429932 300.000000 0.000000
vt -306.429932 0.000000 0.000000
vt -0.000000 0.000000 0.000000
vt -0.000000 300.000000 0.000000
vt -379.100006 300.000000 0.000000
vt -379.100006 0.000000 0.000000
vt -0.000000 0.000000 0.000000
vt -0.000000 300.000000 0.000000
vt -200.000000 300.000000 0.000000
vt -200.000000 0.000000 0.000000
vt -0.000000 0.000000 0.000000
vt -0.000000 300.000000 0.000000
vt -275.000000 300.000000 0.000000
vt -275.000000 0.000000 0.000000
vt -0.000000 0.000000 0.000000
vt -0.000000 300.000000 0.000000
vt -250.000000 300.000000 0.000000
vt -250.000000 0.000000 0.000000
vt -0.000000 0.000000 0.000000
vt -0.000000 300.000000 0.000000
vt -326.241455 300.000000 0.000000
vt -326.241455 0.000000 0.000000
vt -0.000000 0.000000 0.000000
vt -0.000000 300.000000 0.000000
vt -275.000000 300.000000 0.000000
vt -275.000000 0.000000 0.000000
vt -0.000000 0.000000 0.000000
vt -0.000000 300.000000 0.000000
vt -300.000000 300.000000 0.000000
vt -300.000000 0.000000 0.000000
vt -0.000000 0.000000 0.000000
vt -0.000000 300.000000 0.000000
vt -500.000000 300.000000 0.000000
vt -500.000000 0.000000 0.000000
vt -0.000000 0.000000 0.000000
vt -0.000000 300.000000 0.000000
vt -525.000000 300.000000 0.000000
vt -525.000000 0.000000 0.000000
vt -0.000000 0.000000 0.000000
vt -0.000000 300.000000 0.000000
vt -309.829926 300.000000 0.000000
vt -309.829926 0.000000 0.000000
vt -0.000000 0.000000 0.000000
vt -0.000000 300.000000 0.000000
vt -255.422287 300.000000 0.000000
vt -255.422287 0.000000 0.000000
vt -0.000000 0.000000 0.000000
vt -0.000000 300.000000 0.000000
vt -300.000000 300.000000 0.000000
vt -300.000000 0.000000 0.000000
vt -0.000000 0.000000 0.000000
vt 300.000000 -909.985840 0.000000
vt 300.000000 -859.431091 0.000000
vt 300.000000 -808.876282 0.000000
vt 300.000000 -758.321533 0.000000
vt 300.000000 -707.766785 0.000000
vt 300.000000 -657.211975 0.000000
vt 300.000000 -606.657166 0.000000
vt 300.000000 -556.102478 0.000000
vt 300.000000 -505.547699 0.000000
vt 300.000000 -454.992920 0.000000
vt 300.000000 -404.438141 0.000000
vt 300.000000 -353.883392 0.000000
vt 300.000000 -303.328583 0.000000
vt 300.000000 -252.773849 0.000000
vt 300.000000 -202.219070 0.000000
vt 300.000000 -151.664291 0.000000
vt 300.000000 -101.109535 0.000000
vt 300.000000 -50.554768 0.000000
vt 300.000000 0.000000 0.000000
vt 0.000000 0.000000 0.000000
vt 0.000000 -50.554768 0.000000
vt 0.000000 -101.109535 0.000000
vt 0.000000 -151.664291 0.000000
vt 0.000000 -202.219070 0.000000
vt 0.000000 -252.773849 0.000000
vt 0.000000 -303.328583 0.000000
vt 0.000000 -353.883392 0.000000
vt 0.000000 -404.438141 0.000000
vt 0.000000 -454.992920 0.000000
vt 0.000000 -505.547699 0.000000
vt 0.000000 -556.102478 0.000000
vt 0.000000 -606.657166 0.000000
vt 0.000000 -657.211975 0.000000
vt 0.000000 -707.766785 0.000000
vt 0.000000 -758.321533 0.000000
vt 0.000000 -808.876282 0.000000
vt 0.000000 -859.431091 0.000000
vt 0.000000 -909.985840 0.000000
vt -300.000000 -471.238922 0.000000
vt -300.000000 -502.775848 0.000000
vt -300.000000 -534.312866 0.000000
vt -300.000000 -565.849792 0.000000
vt -300.000000 -597.386719 0.000000
vt -300.000000 -628.923706 0.000000
vt -300.000000 -660.460693 0.000000
vt -0.000000 -660.460693 0.000000
vt -0.000000 -628.923706 0.000000
vt -0.000000 -597.386719 0.000000
vt -0.000000 -565.849792 0.000000
vt -0.000000 -534.312866 0.000000
vt -0.000000 -502.775848 0.000000
vt -0.000000 -471.238922 0.000000
vt -0.000000 300.000000 0.000000
vt -250.000000 300.000000 0.000000
vt -250.000000 0.000000 0.000000
vt -0.000000 0.000000 0.000000
vt -0.000000 300.000000 0.000000
vt -400.000000 300.000000 0.000000
vt -400.000000 0.000000 0.000000
vt -0.000000 0.000000 0.000000
vt -0.000000 300.000000 0.000000
vt -450.000000 300.000000 0.000000
vt -450.000000 0.000000 0.000000
vt -0.000000 0.000000 0.000000
vt -0.000000 300.000000 0.000000
vt -193.533493 300.000000 0.000000
vt -193.533493 0.000000 0.000000
vt -0.000000 0.000000 0.000000
vt -0.000000 300.000000 0.000000
vt -168.223816 300.000000 0.000000
vt -168.223816 0.000000 0.000000
vt -0.000000 0.000000 0.000000
vt -0.000000 300.000000 0.000000
vt -241.377060 300.000000 0.000000
vt -241.377060 0.000000 0.000000
vt -0.000000 0.000000 0.000000
vt -0.000000 300.000000 0.000000
vt -157.954117 300.000000 0.000000
vt -157.954117 0.000000 0.000000
vt -0.000000 0.000000 0.000000
vt -300.000000 -942.477844 0.000000
vt -300.000000 -988.721924 0.000000
vt -300.000000 -1034.966064 0.000000
vt -300.000000 -1081.210083 0.000000
vt -300.000000 -1127.454224 0.000000
vt -300.000000 -1173.698364 0.000000
vt -300.000000 -1219.942505 0.000000
vt -300.000000 -1266.186646 0.000000
vt -0.000000 -1266.186646 0.000000
vt -0.000000 -1219.942505 0.000000
vt -0.000000 -1173.698364 0.000000
vt -0.000000 -1127.454224 0.000000
vt -0.000000 -1081.210083 0.000000
vt -0.000000 -1034.966064 0.000000
vt -0.000000 -988.721924 0.000000
vt -0.000000 -942.477844 0.000000
vt -0.000000 300.000000 0.000000
vt -450.000000 300.000000 0.000000
vt -450.000000 0.000000 0.000000
vt -0.000000 0.000000 0.000000
vt -0.000000 300.000000 0.000000
vt -324.968628 300.000000 0.000000
vt -324.968628 0.000000 0.000000
vt -0.000000 0.000000 0.000000
vt 800.000000 -750.000000 0.000000
vt 800.000000 750.000000 0.000000
vt -800.000000 750.000000 0.000000
vt -800.000000 -750.000000 0.000000
vt -193.488770 115.929527 0.000000
vt -221.922577 440.929535 0.000000
vt 53.077419 440.929535 0.000000
vt 53.077419 740.929504 0.000000
vt 553.077393 740.929504 0.000000
vt 553.077393 215.929520 0.000000
vt 375.366272 -37.868286 0.000000
vt 503.077423 -259.070465 0.000000
vt 503.077423 -709.070496 0.000000
vt 103.077415 -709.070496 0.000000
vt 25.823170 -471.306335 0.000000
vt 13.007941 -442.554108 0.000000
vt -5.525710 -417.109528 0.000000
vt -28.961544 -396.093262 0.000000
vt -56.267426 -380.430878 0.000000
vt -86.240776 -370.812134 0.000000
vt -117.561539 -367.660645 0.000000
vt -162.182693 -391.303558 0.000000
vt -210.071350 -407.325745 0.000000
vt -259.936371 -415.295288 0.000000
vt -310.433380 -414.997253 0.000000
vt -360.200867 -406.439758 0.000000
vt -407.897095 -389.853455 0.000000
vt -452.236084 -365.685547 0.000000
vt -492.022430 -334.587646 0.000000
vt -526.183472 -297.398163 0.000000
vt -553.798157 -255.119751 0.000000
vt -574.122009 -208.892319 0.000000
vt -586.607056 -159.962173 0.000000
vt -590.916687 -109.648544 0.000000
vt -586.934631 -59.307926 0.000000
vt -574.768433 -10.297551 0.000000
vt -554.745911 36.061203 0.000000
vt -527.406982 78.518463 0.000000
vt -493.488770 115.929527 0.000000
vt -800.000000 750.000000 0.000000
vt -800.000000 -750.000000 0.000000
vt 800.000000 -750.000000 0.000000
vt 800.000000 750.000000 0.000000
vt 221.922577 440.929535 0.000000
vt 193.488770 115.929527 0.000000
vt 493.488770 115.929527 0.000000
vt 527.406982 78.518463 0.000000
vt 554.745911 36.061203 0.000000
vt 574.768433 -10.297551 0.000000
vt 586.934631 -59.307926 0.000000
vt 590.916687 -109.648544 0.000000
vt 586.607056 -159.962173 0.000000
vt 574.122009 -208.892319 0.000000
vt 553.798157 -255.119751 0.000000
vt 526.183472 -297.398163 0.000000
vt 492.022430 -334.587646 0.000000
vt 452.236084 -365.685547 0.000000
vt 407.897095 -389.853455 0.000000
vt 360.200867 -406.439758 0.000000
vt 310.433380 -414.997253 0.000000
vt 259.936371 -415.295288 0.000000
vt 210.071350 -407.325745 0.000000
vt 162.182693 -391.303558 0.000000
vt 117.561539 -367.660645 0.000000
vt 86.240776 -370.812134 0.000000
vt 56.267426 -380.430878 0.000000
vt 28.961544 -396.093262 0.000000
vt 5.525710 -417.109528 0.000000
vt -13.007941 -442.554108 0.000000
vt -25.823170 -471.306335 0.000000
vt -103.077415 -709.070496 0.000000
vt -503.077423 -709.070496 0.000000
vt -503.077423 -259.070465 0.000000
vt -375.366272 -37.868286 0.000000
vt -553.077393 215.929520 0.000000
vt -553.077393 740.929504 0.000000
vt -53.077419 740.929504 0.000000
vt -53.077419 440.929535 0.000000
vn 100.000000 0.000000 0.000000
vn 100.000000 0.000000 0.000000
vn 100.000000 0.000000 0.000000
vn 100.000000 0.000000 0.000000
vn 0.000000 0.000000 100.000000
vn 0.000000 0.000000 100.000000
vn 0.000000 0.000000 100.000000
vn 0.000000 0.000000 100.000000
vn -100.000000 0.000000 0.000000
vn -100.000000 0.000000 0.000000
vn -100.000000 0.000000 0.000000
vn -100.000000 0.000000 0.000000
vn 0.000000 0.000000 -100.000000
vn 0.000000 0.000000 -100.000000
vn 0.000000 0.000000 -100.000000
vn 0.000000 0.000000 -100.000000
vn 0.000000 -100.000000 0.000000
vn 0.000000 -100.000000 0.000000
vn 0.000000 -100.000000 0.000000
vn 0.000000 -100.000000 0.000000
vn 0.000000 -100.000000 0.000000
vn 0.000000 -100.000000 0.000000
vn 0.000000 -100.000000 0.000000
vn 0.000000 -100.000000 0.000000
vn 0.000000 -100.000000 0.000000
vn 0.000000 -100.000000 0.000000
vn 0.000000 -100.000000 0.000000
vn 0.000000 -100.000000 0.000000
vn 0.000000 -100.000000 0.000000
vn 0.000000 -100.000000 0.000000
vn 0.000000 -100.000000 0.000000
vn 0.000000 -100.000000 0.000000
vn 0.000000 -100.000000 0.000000
vn 0.000000 -100.000000 0.000000
vn 0.000000 -100.000000 0.000000
vn 0.000000 -100.000000 0.000000
vn 0.000000 -100.000000 0.000000
vn 0.000000 100.000000 0.000000
vn 0.000000 100.000000 0.000000
vn 0.000000 100.000000 0.000000
vn 0.000000 100.000000 0.000000
vn 0.000000 100.000000 0.000000
vn 0.000000 100.000000 0.000000
vn 0.000000 100.000000 0.000000
vn 0.000000 100.000000 0.000000
vn 0.000000 100.000000 0.000000
vn 0.000000 100.000000 0.000000
vn 0.000000 100.000000 0.000000
vn 0.000000 100.000000 0.000000
vn 0.000000 100.000000 0.000000
vn 0.000000 100.000000 0.000000
vn 0.000000 100.000000 0.000000
vn 0.000000 100.000000 0.000000
vn 0.000000 100.000000 0.000000
vn 0.000000 100.000000 0.000000
vn 0.000000 100.000000 0.000000
vn 0.000000 100.000000 0.000000
vn 0.000000 100.000000 0.000000
vn -100.000000 0.000000 0.000000
vn -100.000000 0.000000 0.000000
vn -100.000000 0.000000 0.000000
vn -100.000000 0.000000 0.000000
vn 0.000000 0.000000 -100.000000
vn 0.000000 0.000000 -100.000000
vn 0.000000 0.000000 -100.000000
vn 0.000000 0.000000 -100.000000
vn 46.699685 0.000000 -88.425899
vn 46.699685 0.000000 -88.425899
vn 46.699685 0.000000 -88.425899
vn 46.699685 0.000000 -88.425899
vn -59.271628 0.000000 -80.541134
vn -59.271628 0.000000 -80.541134
vn -59.271628 0.000000 -80.541134
vn -59.271628 0.000000 -80.541134
vn 0.000000 0.000000 -100.000000
vn 0.000000 0.000000 -100.000000
vn 0.000000 0.000000 -100.000000
vn 0.000000 0.000000 -100.000000
vn 100.000000 0.000000 0.000000
vn 100.000000 0.000000 0.000000
vn 100.000000 0.000000 0.000000
vn 100.000000 0.000000 0.000000
vn 0.000000 0.000000 100.000000
vn 0.000000 0.000000 100.000000
vn 0.000000 0.000000 100.000000
vn 0.000000 0.000000 100.000000
vn 100.000000 0.000000 0.000000
vn 100.000000 0.000000 0.000000
vn 100.000000 0.000000 0.000000
vn 100.000000 0.000000 0.000000
vn 8.715574 0.000000 -99.619472
vn 8.715574 0.000000 -99.619472
vn 8.715574 0.000000 -99.619472
vn 8.715574 0.000000 -99.619472
vn -100.000000 0.000000 0.000000
vn -100.000000 0.000000 0.000000
vn -100.000000 0.000000 0.000000
vn -100.000000 0.000000 0.000000
vn 0.000000 0.000000 -100.000000
vn 0.000000 0.000000 -100.000000
vn 0.000000 0.000000 -100.000000
vn 0.000000 0.000000 -100.000000
vn -100.000000 0.000000 0.000000
vn -100.000000 0.000000 0.000000
vn -100.000000 0.000000 0.000000
vn -100.000000 0.000000 0.000000
vn 0.000000 0.000000 100.000000
vn 0.000000 0.000000 100.000000
vn 0.000000 0.000000 100.000000
vn 0.000000 0.000000 100.000000
vn 57.357645 0.000000 81.915206
vn 57.357645 0.000000 81.915206
vn 57.357645 0.000000 81.915206
vn 57.357645 0.000000 81.915206
vn -50.000000 0.000000 86.602539
vn -50.000000 0.000000 86.602539
vn -50.000000 0.000000 86.602539
vn -50.000000 0.000000 86.602539
vn -100.000000 0.000000 0.000000
vn -100.000000 0.000000 0.000000
vn -100.000000 0.000000 0.000000
vn -100.000000 0.000000 0.000000
vn -73.023176 0.000000 -68.319952
vn -60.858643 0.000000 -79.348755
vn -47.053304 0.000000 -88.238239
vn -31.979355 0.000000 -94.748724
vn -16.043212 0.000000 -98.704690
vn 0.325473 0.000000 -99.999470
vn 16.685383 0.000000 -98.598164
vn 32.595438 0.000000 -94.538552
vn 47.626686 0.000000 -87.930077
vn 61.373872 0.000000 -78.950924
vn 73.466355 0.000000 -67.843163
vn 83.578104 0.000000 -54.906291
vn 91.436505 0.000000 -40.489081
vn 96.829683 0.000000 -24.980247
vn 99.612230 0.000000 -8.797918
vn 99.709129 0.000000 7.621611
vn 97.117770 0.000000 23.835653
vn 91.908014 0.000000 39.407063
vn 84.220326 0.000000 53.916013
vn 84.220326 0.000000 53.916013
vn 91.908014 0.000000 39.407063
vn 97.117770 0.000000 23.835653
vn 99.709129 0.000000 7.621611
vn 99.612230 0.000000 -8.797918
vn 96.829683 0.000000 -24.980247
vn 91.436505 0.000000 -40.489081
vn 83.578104 0.000000 -54.906291
vn 73.466355 0.000000 -67.843163
vn 61.373872 0.000000 -78.950924
vn 47.626686 0.000000 -87.930077
vn 32.595438 0.000000 -94.538552
vn 16.685383 0.000000 -98.598164
vn 0.325473 0.000000 -99.999470
vn -16.043212 0.000000 -98.704690
vn -31.979355 0.000000 -94.748724
vn -47.053304 0.000000 -88.238239
vn -60.858643 0.000000 -79.348755
vn -73.023176 0.000000 -68.319952
vn 99.998826 0.000000 0.484152
vn 97.897846 0.000000 -20.396356
vn 91.485351 0.000000 -40.378588
vn 81.043750 0.000000 -58.582509
vn 67.032903 0.000000 -74.206400
vn 50.069863 0.000000 -86.562169
vn 30.901700 0.000000 -95.105654
vn 30.901700 0.000000 -95.105654
vn 50.069863 0.000000 -86.562169
vn 67.032903 0.000000 -74.206400
vn 81.043750 0.000000 -58.582509
vn 91.485351 0.000000 -40.378588
vn 97.897846 0.000000 -20.396356
vn 99.998826 0.000000 0.484152
vn 30.901700 0.000000 -95.105654
vn 30.901700 0.000000 -95.105654
vn 30.901700 0.000000 -95.105654
vn 30.901700 0.000000 -95.105654
vn 100.000000 0.000000 0.000000
vn 100.000000 0.000000 0.000000
vn 100.000000 0.000000 0.000000
vn 100.000000 0.000000 0.000000
vn 0.000000 0.000000 100.000000
vn 0.000000 0.000000 100.000000
vn 0.000000 0.000000 100.000000
vn 0.000000 0.000000 100.000000
vn -14.773571 0.000000 98.902690
vn -14.773571 0.000000 98.902690
vn -14.773571 0.000000 98.902690
vn -14.773571 0.000000 98.902690
vn -57.276672 0.000000 81.971842
vn -57.276672 0.000000 81.971842
vn -57.276672 0.000000 81.971842
vn -57.276672 0.000000 81.971842
vn -100.000000 0.000000 0.000000
vn -100.000000 0.000000 0.000000
vn -100.000000 0.000000 0.000000
vn -100.000000 0.000000 0.000000
vn -93.903977 0.000000 -34.380859
vn -93.903977 0.000000 -34.380859
vn -93.903977 0.000000 -34.380859
vn -93.903977 0.000000 -34.380859
vn -82.536733 0.000000 56.459612
vn -72.889423 0.000000 68.462634
vn -61.513591 0.000000 78.842109
vn -48.679012 0.000000 87.351894
vn -34.690040 0.000000 93.790197
vn -19.878422 0.000000 98.004329
vn -4.595398 0.000000 99.894357
vn 10.796602 0.000000 99.415457
vn 10.796602 0.000000 99.415457
vn -4.595398 0.000000 99.894357
vn -19.878422 0.000000 98.004329
vn -34.690040 0.000000 93.790197
vn -48.679012 0.000000 87.351894
vn -61.513591 0.000000 78.842109
vn -72.889423 0.000000 68.462634
vn -82.536733 0.000000 56.459612
vn 100.000000 0.000000 0.000000
vn 100.000000 0.000000 0.000000
vn 100.000000 0.000000 0.000000
vn 100.000000 0.000000 0.000000
vn -17.364818 0.000000 98.480773
vn -17.364818 0.000000 98.480773
vn -17.364818 0.000000 98.480773
vn -17.364818 0.000000 98.480773
vn 0.000000 -100.000000 0.000000
vn 0.000000 -100.000000 0.000000
vn 0.000000 -100.000000 0.000000
vn 0.000000 -100.000000 0.000000
vn 0.000000 -100.000000 0.000000
vn 0.000000 -100.000000 0.000000
vn 0.000000 -100.000000 0.000000
vn 0.000000 -100.000000 0.000000
vn 0.000000 -100.000000 0.000000
vn 0.000000 -100.000000 0.000000
vn 0.000000 -100.000000 0.000000
vn 0.000000 -100.000000 0.000000
vn 0.000000 -100.000000 0.000000
vn 0.000000 -100.000000 0.000000
vn 0.000000 -100.000000 0.000000
vn 0.000000 -100.000000 0.000000
vn 0.000000 -100.000000 0.000000
vn 0.000000 -100.000000 0.000000
vn 0.000000 -100.000000 0.000000
vn 0.000000 -100.000000 0.000000
vn 0.000000 -100.000000 0.000000
vn 0.000000 -100.000000 0.000000
vn 0.000000 -100.000000 0.000000
vn 0.000000 -100.000000 0.000000
vn 0.000000 -100.000000 0.000000
vn 0.000000 -100.000000 0.000000
vn 0.000000 -100.000000 0.000000
vn 0.000000 -100.000000 0.000000
vn 0.000000 -100.000000 0.000000
vn 0.000000 -100.000000 0.000000
vn 0.000000 -100.000000 0.000000
vn 0.000000 -100.000000 0.000000
vn 0.000000 -100.000000 0.000000
vn 0.000000 -100.000000 0.000000
vn 0.000000 -100.000000 0.000000
vn 0.000000 -100.000000 0.000000
vn 0.000000 -100.000000 0.000000
vn 0.000000 -100.000000 0.000000
vn 0.000000 -100.000000 0.000000
vn 0.000000 100.000000 0.000000
vn 0.000000 100.000000 0.000000
vn 0.000000 100.000000 0.000000
vn 0.000000 100.000000 0.000000
vn 0.000000 100.000000 0.000000
vn 0.000000 100.000000 0.000000
vn 0.000000 100.000000 0.000000
vn 0.000000 100.000000 0.000000
vn 0.000000 100.000000 0.000000
vn 0.000000 100.000000 0.000000
vn 0.000000 100.000000 0.000000
vn 0.000000 100.000000 0.000000
vn 0.000000 100.000000 0.000000
vn 0.000000 100.000000 0.000000
vn 0.000000 100.000000 0.000000
vn 0.000000 100.000000 0.000000
vn 0.000000 100.000000 0.000000
vn 0.000000 100.000000 0.000000
vn 0.000000 100.000000 0.000000
vn 0.000000 100.000000 0.000000
vn 0.000000 100.000000 0.000000
vn 0.000000 100.000000 0.000000
vn 0.000000 100.000000 0.000000
vn 0.000000 100.000000 0.000000
vn 0.000000 100.000000 0.000000
vn 0.000000 100.000000 0.000000
vn 0.000000 100.000000 0.000000
vn 0.000000 100.000000 0.000000
vn 0.000000 100.000000 0.000000
vn 0.000000 100.000000 0.000000
vn 0.000000 100.000000 0.000000
vn 0.000000 100.000000 0.000000
vn 0.000000 100.000000 0.000000
vn 0.000000 100.000000 0.000000
vn 0.000000 100.000000 0.000000
vn 0.000000 100.000000 0.000000
vn 0.000000 100.000000 0.000000
vn 0.000000 100.000000 0.000000
vn 0.000000 100.000000 0.000000
usemtl 191,191,191
f 118/1/1 117/2/2 120/4/4
f 120/4/4 117/2/2 119/3/3
f 2/5/5 118/6/6 4/8/8
f 4/8/8 118/6/6 120/7/7
f 1/9/9 2/10/10 3/12/12
f 3/12/12 2/10/10 4/11/11
f 117/13/13 1/14/14 119/16/16
f 119/16/16 1/14/14 3/15/15
f 9/18/18 47/19/19 10/17/17
f 10/17/17 47/19/19 37/37/37
f 37/37/37 47/19/19 81/20/20
f 37/37/37 81/20/20 57/36/36
f 57/36/36 81/20/20 85/26/26
f 57/36/36 85/26/26 58/35/35
f 58/35/35 85/26/26 86/27/27
f 58/35/35 86/27/27 77/28/28
f 85/26/26 81/20/20 101/24/24
f 101/24/24 81/20/20 97/21/21
f 101/24/24 97/21/21 109/22/22
f 109/22/22 110/23/23 101/24/24
f 101/24/24 102/25/25 85/26/26
f 77/28/28 73/29/29 58/35/35
f 58/35/35 73/29/29 69/30/30
f 58/35/35 69/30/30 65/31/31
f 65/31/31 61/32/32 58/35/35
f 58/35/35 61/32/32 53/33/33
f 58/35/35 53/33/33 48/34/34
f 11/38/38 12/39/39 49/58/58
f 49/58/58 12/39/39 39/40/40
f 49/58/58 39/40/40 82/57/57
f 82/57/57 39/40/40 59/41/41
f 82/57/57 59/41/41 87/51/51
f 87/51/51 59/41/41 60/42/42
f 87/51/51 60/42/42 88/50/50
f 88/50/50 60/42/42 78/49/49
f 78/49/49 60/42/42 74/48/48
f 74/48/48 60/42/42 70/47/47
f 70/47/47 60/42/42 66/46/46
f 66/46/46 60/42/42 62/45/45
f 62/45/45 60/42/42 54/44/44
f 54/44/44 60/42/42 50/43/43
f 104/52/52 103/53/53 87/51/51
f 87/51/51 103/53/53 82/57/57
f 112/54/54 111/55/55 103/53/53
f 103/53/53 111/55/55 98/56/56
f 103/53/53 98/56/56 82/57/57
f 9/59/59 10/60/60 11/62/62
f 11/62/62 10/60/60 12/61/61
f 47/63/63 9/64/64 49/66/66
f 49/66/66 9/64/64 11/65/65
f 81/67/67 47/68/68 82/70/70
f 82/70/70 47/68/68 49/69/69
f 97/71/71 81/72/72 98/74/74
f 98/74/74 81/72/72 82/73/73
f 109/75/75 97/76/76 111/78/78
f 111/78/78 97/76/76 98/77/77
f 110/79/79 109/80/80 112/82/82
f 112/82/82 109/80/80 111/81/81
f 101/83/83 110/84/84 103/86/86
f 103/86/86 110/84/84 112/85/85
f 102/87/87 101/88/88 104/90/90
f 104/90/90 101/88/88 103/89/89
f 106/91/91 93/92/92 108/94/94
f 108/94/94 93/92/92 95/93/93
f 105/95/95 106/96/96 107/98/98
f 107/98/98 106/96/96 108/97/97
f 114/99/99 105/100/100 116/102/102
f 116/102/102 105/100/100 107/101/101
f 113/103/103 114/104/104 115/106/106
f 115/106/106 114/104/104 116/105/105
f 99/107/107 113/108/108 100/110/110
f 100/110/110 113/108/108 115/109/109
f 79/111/111 99/112/112 80/114/114
f 80/114/114 99/112/112 100/113/113
f 51/115/115 79/116/116 52/118/118
f 52/118/118 79/116/116 80/117/117
f 93/119/119 94/120/120 95/122/122
f 95/122/122 94/120/120 96/121/121
f 96/160/160 94/123/123 92/159/159
f 92/159/159 94/123/123 91/124/124
f 92/159/159 91/124/124 90/158/158
f 90/158/158 91/124/124 89/125/125
f 90/158/158 89/125/125 84/157/157
f 84/157/157 89/125/125 83/126/126
f 84/157/157 83/126/126 76/156/156
f 76/156/156 83/126/126 75/127/127
f 76/156/156 75/127/127 72/155/155
f 72/155/155 75/127/127 71/128/128
f 72/155/155 71/128/128 68/154/154
f 68/154/154 71/128/128 67/129/129
f 68/154/154 67/129/129 64/153/153
f 64/153/153 67/129/129 63/130/130
f 64/153/153 63/130/130 56/152/152
f 56/152/152 63/130/130 55/131/131
f 56/152/152 55/131/131 46/151/151
f 46/151/151 55/131/131 45/132/132
f 46/151/151 45/132/132 44/150/150
f 44/150/150 45/132/132 43/133/133
f 44/150/150 43/133/133 42/149/149
f 42/149/149 43/133/133 41/134/134
f 42/149/149 41/134/134 32/148/148
f 32/148/148 41/134/134 31/135/135
f 32/148/148 31/135/135 26/147/147
f 26/147/147 31/135/135 25/136/136
f 26/147/147 25/136/136 22/146/146
f 22/146/146 25/136/136 21/137/137
f 22/146/146 21/137/137 20/145/145
f 20/145/145 21/137/137 19/138/138
f 20/145/145 19/138/138 24/144/144
f 24/144/144 19/138/138 23/139/139
f 24/144/144 23/139/139 30/143/143
f 30/143/143 23/139/139 29/140/140
f 30/143/143 29/140/140 40/142/142
f 40/142/142 29/140/140 38/141/141
f 40/174/174 38/161/161 36/173/173
f 36/173/173 38/161/161 35/162/162
f 36/173/173 35/162/162 34/172/172
f 34/172/172 35/162/162 33/163/163
f 34/172/172 33/163/163 28/171/171
f 28/171/171 33/163/163 27/164/164
f 28/171/171 27/164/164 18/170/170
f 18/170/170 27/164/164 17/165/165
f 18/170/170 17/165/165 16/169/169
f 16/169/169 17/165/165 15/166/166
f 16/169/169 15/166/166 14/168/168
f 14/168/168 15/166/166 13/167/167
f 13/175/175 6/176/176 14/178/178
f 14/178/178 6/176/176 8/177/177
f 6/179/179 5/180/180 8/182/182
f 8/182/182 5/180/180 7/181/181
f 5/183/183 51/184/184 7/186/186
f 7/186/186 51/184/184 52/185/185
f 10/187/187 37/188/188 12/190/190
f 12/190/190 37/188/188 39/189/189
f 37/191/191 57/192/192 39/194/194
f 39/194/194 57/192/192 59/193/193
f 57/195/195 58/196/196 59/198/198
f 59/198/198 58/196/196 60/197/197
f 58/199/199 48/200/200 60/202/202
f 60/202/202 48/200/200 50/201/201
f 50/218/218 48/203/203 54/217/217
f 54/217/217 48/203/203 53/204/204
f 54/217/217 53/204/204 62/216/216
f 62/216/216 53/204/204 61/205/205
f 62/216/216 61/205/205 66/215/215
f 66/215/215 61/205/205 65/206/206
f 66/215/215 65/206/206 70/214/214
f 70/214/214 65/206/206 69/207/207
f 70/214/214 69/207/207 74/213/213
f 74/213/213 69/207/207 73/208/208
f 74/213/213 73/208/208 78/212/212
f 78/212/212 73/208/208 77/209/209
f 78/212/212 77/209/209 88/211/211
f 88/211/211 77/209/209 86/210/210
f 86/219/219 85/220/220 88/222/222
f 88/222/222 85/220/220 87/221/221
f 85/223/223 102/224/224 87/226/226
f 87/226/226 102/224/224 104/225/225
f 117/228/228 99/236/236 1/227/227
f 1/227/227 99/236/236 51/238/238
f 1/227/227 51/238/238 5/239/239
f 118/229/229 114/234/234 117/228/228
f 117/228/228 114/234/234 113/235/235
f 117/228/228 113/235/235 99/236/236
f 2/230/230 71/260/260 118/229/229
f 118/229/229 71/260/260 75/261/261
f 118/229/229 75/261/261 83/262/262
f 1/227/227 6/240/240 2/230/230
f 2/230/230 6/240/240 21/251/251
f 2/230/230 21/251/251 25/252/252
f 93/231/231 106/232/232 94/265/265
f 94/265/265 106/232/232 118/229/229
f 94/265/265 118/229/229 91/264/264
f 91/264/264 118/229/229 89/263/263
f 89/263/263 118/229/229 83/262/262
f 105/233/233 114/234/234 106/232/232
f 106/232/232 114/234/234 118/229/229
f 99/236/236 79/237/237 51/238/238
f 5/239/239 6/240/240 1/227/227
f 13/241/241 23/249/249 6/240/240
f 6/240/240 23/249/249 19/250/250
f 6/240/240 19/250/250 21/251/251
f 23/249/249 13/241/241 29/248/248
f 29/248/248 13/241/241 15/242/242
f 29/248/248 15/242/242 17/243/243
f 17/243/243 27/244/244 29/248/248
f 29/248/248 27/244/244 33/245/245
f 29/248/248 33/245/245 35/246/246
f 35/246/246 38/247/247 29/248/248
f 25/252/252 31/253/253 2/230/230
f 2/230/230 31/253/253 41/254/254
f 2/230/230 41/254/254 43/255/255
f 43/255/255 45/256/256 2/230/230
f 2/230/230 45/256/256 55/257/257
f 2/230/230 55/257/257 63/258/258
f 63/258/258 67/259/259 2/230/230
f 2/230/230 67/259/259 71/260/260
f 3/267/267 100/301/301 119/266/266
f 119/266/266 100/301/301 115/302/302
f 119/266/266 115/302/302 116/303/303
f 4/268/268 8/297/297 3/267/267
f 3/267/267 8/297/297 7/298/298
f 3/267/267 7/298/298 52/299/299
f 120/269/269 72/277/277 4/268/268
f 4/268/268 72/277/277 68/278/278
f 4/268/268 68/278/278 64/279/279
f 119/266/266 116/303/303 120/269/269
f 120/269/269 116/303/303 108/270/270
f 120/269/269 108/270/270 96/272/272
f 96/272/272 108/270/270 95/271/271
f 96/272/272 92/273/273 120/269/269
f 120/269/269 92/273/273 90/274/274
f 120/269/269 90/274/274 84/275/275
f 84/275/275 76/276/276 120/269/269
f 120/269/269 76/276/276 72/277/277
f 64/279/279 56/280/280 4/268/268
f 4/268/268 56/280/280 46/281/281
f 4/268/268 46/281/281 44/282/282
f 44/282/282 42/283/283 4/268/268
f 4/268/268 42/283/283 32/284/284
f 4/268/268 32/284/284 26/285/285
f 26/285/285 22/286/286 4/268/268
f 4/268/268 22/286/286 8/297/297
f 22/286/286 20/287/287 8/297/297
f 8/297/297 20/287/287 24/288/288
f 8/297/297 24/288/288 14/296/296
f 14/296/296 24/288/288 30/289/289
f 14/296/296 30/289/289 16/295/295
f 16/295/295 30/289/289 18/294/294
f 18/294/294 30/289/289 28/293/293
f 28/293/293 30/289/289 34/292/292
f 34/292/292 30/289/289 36/291/291
f 36/291/291 30/289/289 40/290/290
f 80/300/300 100/301/301 52/299/299
f 52/299/299 100/301/301 3/267/267
f 116/303/303 107/304/304 108/270/270
# 120 vertices
# 304 texture params
# 304 normals
# 236 facets

# 1 groups
